<svg xmlns="http://www.w3.org/2000/svg" xmlns:xlink="http://www.w3.org/1999/xlink" width="270" zoomAndPan="magnify" viewBox="0 0 202.5 276.749996" height="369" preserveAspectRatio="xMidYMid meet" version="1.0"><defs><g/><clipPath id="0c145e3d2d"><path d="M 52 102 L 202 102 L 202 265 L 52 265 Z M 52 102 " clip-rule="nonzero"/></clipPath></defs><g clip-path="url(#0c145e3d2d)"><path stroke-linecap="butt" transform="matrix(0.75, 0, 0, 0.75, 96.433586, 108.316099)" fill="none" stroke-linejoin="miter" d="M 96.208352 51.01604 L 63.776058 150.000424 L 32.296888 150.000424 L 0.0000103968 51.01604 L 30.062513 51.01604 L 43.536473 101.182711 C 44.031264 103.078544 44.604181 105.505628 45.260431 108.463962 C 45.916681 111.417087 46.526056 114.365004 47.088556 117.297296 C 47.651056 120.234796 48.005223 122.625421 48.14064 124.47438 C 48.317723 122.625421 48.656265 120.255629 49.156265 117.365004 C 49.651056 114.479587 50.20314 111.578545 50.812515 108.667087 C 51.42189 105.755628 52.000015 103.349378 52.541682 101.453544 L 66.281266 51.01604 Z M 96.208352 51.01604 " stroke="#796a3a" stroke-width="10.400025" stroke-opacity="1" stroke-miterlimit="4"/></g><g fill="#151f28" fill-opacity="1"><g transform="translate(96.433586, 220.816089)"><g><path d="M 72.15625 -74.25 L 47.84375 0 L 24.21875 0 L 0 -74.25 L 22.546875 -74.25 L 32.65625 -36.609375 C 33.03125 -35.191406 33.460938 -33.375 33.953125 -31.15625 C 34.441406 -28.9375 34.894531 -26.726562 35.3125 -24.53125 C 35.738281 -22.332031 36.003906 -20.535156 36.109375 -19.140625 C 36.242188 -20.535156 36.492188 -22.316406 36.859375 -24.484375 C 37.234375 -26.648438 37.648438 -28.820312 38.109375 -31 C 38.566406 -33.1875 39 -34.988281 39.40625 -36.40625 L 49.71875 -74.25 Z M 72.15625 -74.25 "/></g></g></g><path stroke-linecap="butt" transform="matrix(0.75, 0, 0, 0.75, 34.499998, 24.016104)" fill="none" stroke-linejoin="miter" d="M 73.489593 153.999375 L 68.473967 134.91604 L 35.385423 134.91604 L 30.229172 153.999375 L 0.000002961 153.999375 L 33.229173 51.744157 L 69.937509 51.744157 L 103.583346 153.999375 Z M 62.760425 112.343121 L 58.375008 95.62437 C 57.911466 93.817078 57.234383 91.228536 56.354175 87.858744 C 55.468758 84.49416 54.598966 81.009785 53.739591 77.410826 C 52.880216 73.811868 52.218758 70.853534 51.755216 68.530617 C 51.338549 70.853534 50.744799 73.718118 49.979174 77.129576 C 49.213549 80.546243 48.421882 83.926452 47.609382 87.264994 C 46.796882 90.608744 46.088549 93.395203 45.484382 95.62437 L 41.098965 112.343121 Z M 62.760425 112.343121 " stroke="#796a3a" stroke-width="10.700025" stroke-opacity="1" stroke-miterlimit="4"/><g fill="#151f28" fill-opacity="1"><g transform="translate(34.499998, 139.516094)"><g><path d="M 55.125 0 L 51.359375 -14.3125 L 26.546875 -14.3125 L 22.671875 0 L 0 0 L 24.921875 -76.703125 L 52.453125 -76.703125 L 77.6875 0 Z M 47.078125 -31.25 L 43.78125 -43.78125 C 43.4375 -45.132812 42.929688 -47.070312 42.265625 -49.59375 C 41.609375 -52.125 40.957031 -54.738281 40.3125 -57.4375 C 39.664062 -60.144531 39.164062 -62.367188 38.8125 -64.109375 C 38.5 -62.367188 38.054688 -60.21875 37.484375 -57.65625 C 36.910156 -55.09375 36.316406 -52.554688 35.703125 -50.046875 C 35.097656 -47.546875 34.566406 -45.457031 34.109375 -43.78125 L 30.828125 -31.25 Z M 47.078125 -31.25 "/></g></g></g></svg>